<?xml version="1.0" standalone="no"?>
<!DOCTYPE svg PUBLIC "-//W3C//DTD SVG 20010904//EN"
 "http://www.w3.org/TR/2001/REC-SVG-20010904/DTD/svg10.dtd">
<svg version="1.0" xmlns="http://www.w3.org/2000/svg"
 width="1601.000000pt" height="1601.000000pt" viewBox="0 0 1601.000000 1601.000000"
 preserveAspectRatio="xMidYMid meet">
<metadata>
Created by potrace 1.14, written by Peter Selinger 2001-2017
</metadata>
<g transform="translate(0.000000,1601.000000) scale(0.100000,-0.100000)"
fill="#000000" stroke="none">
<path d="M24 14752 l-21 -3 0 -983 0 -983 301 -1 c507 -2 556 -8 656 -75 25
-17 532 -517 1128 -1111 l1082 -1081 -269 -269 c-280 -281 -306 -301 -375
-292 -17 3 -70 13 -117 24 -102 22 -256 22 -339 -1 -169 -46 -307 -137 -397
-260 -20 -29 -40 -54 -43 -57 -3 -3 -20 -34 -37 -70 -27 -57 -41 -97 -60 -175
-13 -55 -12 -234 3 -295 9 -36 17 -73 19 -83 2 -9 20 -50 39 -90 139 -284 456
-450 768 -402 312 48 542 264 614 573 21 91 19 238 -5 342 -36 157 -32 165
185 370 92 88 90 87 123 53 15 -15 184 -181 375 -368 192 -187 394 -385 451
-440 65 -64 110 -118 126 -150 l24 -50 1 -1875 c1 -1706 4 -2014 19 -2090 2
-13 7 -42 11 -64 3 -22 8 -44 11 -49 11 -18 9 -74 -4 -120 -13 -43 -80 -114
-868 -904 -930 -931 -901 -899 -914 -1026 -4 -35 -6 -378 -6 -763 0 -550 3
-704 13 -716 11 -14 103 -15 780 -14 l767 2 45 23 c32 16 244 221 711 689 414
415 733 726 844 822 98 85 183 160 189 165 184 164 177 159 197 146 11 -6 44
-25 74 -41 31 -17 73 -41 95 -55 22 -14 41 -25 43 -25 2 0 44 -23 93 -51 49
-29 107 -62 129 -74 22 -13 85 -49 140 -80 55 -32 116 -66 135 -77 19 -11 189
-108 378 -216 189 -109 372 -213 407 -232 35 -19 70 -41 77 -48 6 -6 15 -12
20 -12 4 0 29 -13 56 -29 26 -15 68 -39 93 -53 24 -14 69 -39 100 -56 77 -44
135 -54 190 -32 24 9 118 59 209 112 91 53 181 105 200 115 200 114 830 474
880 503 36 21 160 92 277 159 l212 120 103 -6 c56 -3 109 -7 118 -8 8 -2 27
-4 41 -4 28 -1 -1 27 915 -878 790 -779 865 -851 904 -865 48 -18 1533 -19
1551 -1 8 8 11 181 10 655 -1 889 0 873 -63 977 -12 20 -397 412 -856 872
-459 460 -843 852 -854 870 -14 22 -21 52 -21 89 -1 53 2 74 25 185 7 33 11
674 13 1930 2 1034 6 1919 9 1966 5 91 17 125 61 174 122 133 952 985 960 985
2 0 36 -41 76 -92 40 -50 97 -115 127 -142 63 -58 102 -132 102 -193 0 -23 -7
-75 -16 -115 -10 -43 -16 -118 -16 -183 0 -96 4 -122 31 -204 38 -114 84 -192
164 -277 282 -302 798 -306 1066 -8 127 142 201 322 207 504 7 202 -65 370
-228 538 -89 91 -198 156 -318 187 -88 24 -261 24 -360 1 -115 -27 -159 -29
-188 -10 -24 16 -209 199 -442 439 -58 59 -94 103 -91 114 1 9 301 312 665
674 363 362 857 853 1096 1091 239 238 450 441 468 450 63 32 89 34 555 38
180 1 328 5 328 8 1 3 2 445 3 983 1 862 -1 977 -14 978 -21 1 -1909 1 -1937
0 l-22 -1 -1 -342 c0 -189 -2 -373 -4 -410 -6 -118 -22 -138 -361 -483 -583
-591 -1867 -1875 -1884 -1885 -14 -7 -64 38 -280 254 -145 144 -268 271 -273
281 -15 25 -17 92 -6 133 42 153 41 317 -3 454 -112 350 -444 556 -810 502
-483 -72 -768 -619 -549 -1054 124 -245 377 -403 645 -403 49 0 101 3 115 6
219 45 264 35 384 -87 28 -28 80 -74 116 -101 94 -71 95 -72 78 -93 -7 -9 -16
-19 -20 -22 -4 -3 -99 -95 -211 -205 -342 -335 -332 -327 -406 -327 -46 1
-170 46 -386 142 -22 10 -191 82 -375 160 -344 146 -375 159 -434 185 -19 9
-113 49 -208 89 -95 41 -310 133 -478 206 -168 73 -355 154 -416 180 -137 60
-184 73 -255 71 -74 -1 -103 -12 -514 -191 -192 -84 -476 -206 -630 -272 -154
-66 -298 -128 -320 -138 -421 -186 -1034 -442 -1063 -444 -20 -2 -50 4 -67 12
-16 8 -109 93 -205 188 -96 95 -222 218 -280 273 l-105 101 66 62 c180 173
233 214 285 226 52 11 63 11 199 -15 22 -4 87 -7 145 -7 334 3 621 224 707
544 27 102 24 294 -6 390 -77 250 -253 427 -496 499 -93 27 -133 32 -236 32
-191 -2 -346 -70 -495 -218 -190 -189 -256 -416 -194 -668 12 -49 23 -105 25
-122 6 -52 -39 -121 -160 -246 -108 -111 -156 -162 -304 -326 -41 -44 -78 -81
-82 -81 -13 0 -265 248 -1274 1255 -518 517 -953 958 -967 981 -57 90 -60 116
-63 526 -1 208 -5 381 -8 385 -7 6 -1899 11 -1943 5z m1052 -492 c-7 -8 -109
-125 -227 -260 -117 -135 -227 -261 -244 -280 -16 -19 -51 -57 -76 -84 l-47
-50 0 339 c0 187 1 342 3 345 2 3 138 5 304 5 270 1 299 -1 287 -15z m14445
13 c4 -35 3 -597 -1 -603 -3 -5 -144 131 -315 301 l-309 309 312 0 c172 0 312
-3 313 -7z m-14021 -668 l0 -345 -330 0 c-181 0 -330 2 -330 5 0 3 8 13 18 23
9 10 60 63 112 118 477 500 520 544 527 544 2 0 3 -155 3 -345z m13620 -346
c0 -3 -137 -5 -305 -5 l-305 0 -1 30 c-1 30 0 499 1 561 0 27 26 4 305 -275
168 -168 305 -307 305 -311z m-945 -221 l0 -211 157 1 158 1 -15 -23 c-8 -12
-25 -31 -37 -42 -20 -18 -344 -352 -504 -521 -33 -34 -117 -121 -189 -195 -71
-74 -240 -248 -375 -388 -135 -139 -274 -283 -310 -320 -36 -37 -144 -148
-239 -248 -96 -100 -180 -182 -185 -182 -6 0 -34 22 -62 48 -28 26 -90 83
-139 127 -48 44 -114 105 -147 135 l-59 55 144 150 c187 194 302 312 865 883
556 564 713 725 834 854 51 54 94 95 97 92 3 -3 6 -100 6 -216z m-11749 -298
c396 -403 516 -525 914 -930 442 -449 565 -578 565 -591 0 -4 -40 -45 -90 -90
-88 -80 -162 -148 -260 -238 l-48 -45 -131 136 c-133 137 -515 532 -646 668
-40 41 -170 176 -289 299 -119 123 -249 258 -290 300 -152 158 -476 494 -488
507 -7 7 -13 14 -13 16 0 2 71 2 159 2 l159 -1 0 141 c0 77 1 176 1 219 l1 79
123 -128 c67 -71 217 -225 333 -344z m3201 26 c51 -26 102 -75 126 -120 29
-56 31 -174 2 -231 -68 -139 -242 -195 -369 -121 -195 114 -175 400 33 479 56
21 161 18 208 -7z m5019 -4 c48 -24 100 -81 122 -131 9 -22 15 -65 15 -107 0
-59 -5 -79 -29 -124 -107 -196 -384 -181 -475 25 -64 144 14 305 171 356 43
14 152 4 196 -19z m940 -1643 c27 -30 81 -90 119 -134 113 -126 116 -100 -21
-233 -65 -63 -137 -128 -158 -143 -67 -50 -104 -43 -350 68 -55 25 -102 46
-104 48 -2 2 40 45 94 96 53 52 158 153 233 226 75 72 136 131 137 130 1 -1
23 -27 50 -58z m-6895 -121 c227 -236 259 -270 259 -278 0 -17 -306 -140 -350
-140 -59 0 -101 30 -305 223 -89 85 -90 86 -70 104 146 130 217 194 250 225
22 21 42 38 45 38 3 0 80 -78 171 -172z m-781 -479 c102 -62 217 -177 273
-272 58 -97 88 -203 91 -327 3 -109 -18 -260 -36 -260 -6 0 -69 57 -140 128
-72 70 -147 143 -167 162 -21 19 -105 102 -189 183 l-151 149 56 51 c31 29 92
87 137 129 45 43 83 78 86 78 3 0 21 -10 40 -21z m8374 -102 l129 -122 -210
-215 c-116 -118 -260 -267 -321 -330 -126 -131 -119 -131 -141 7 -40 260 33
479 217 648 57 53 170 134 187 135 6 0 68 -55 139 -123z m-9907 -912 c130 -64
182 -220 118 -351 -79 -162 -296 -201 -421 -75 -93 92 -105 252 -27 353 79
102 211 131 330 73z m11509 9 c163 -68 206 -288 85 -426 -95 -108 -278 -110
-378 -5 -71 74 -96 167 -69 259 45 153 214 234 362 172z m-9395 -5458 c24 -12
231 -182 304 -248 17 -16 33 -28 38 -28 4 0 7 -4 7 -8 0 -9 -1924 -1942 -1933
-1942 -2 0 -3 179 -2 398 2 336 5 403 18 428 8 16 86 97 172 179 87 83 186
177 220 210 34 33 149 143 255 245 106 102 221 212 255 245 34 33 147 141 250
240 103 99 208 200 233 224 75 72 125 87 183 57z m7251 -12 c12 -10 49 -45 82
-77 34 -33 102 -98 151 -145 50 -48 185 -178 300 -289 116 -111 235 -225 265
-254 48 -45 314 -301 551 -529 43 -41 83 -88 89 -105 14 -36 22 -927 8 -923
-4 2 -456 451 -1003 997 l-994 995 22 19 c12 10 39 33 60 50 45 37 72 60 107
90 99 86 205 171 228 183 35 19 106 13 134 -12z m-6237 -841 c14 -36 16 -73 4
-95 -6 -13 -41 -52 -78 -87 -36 -35 -120 -116 -187 -180 -419 -403 -524 -503
-559 -536 -22 -21 -94 -90 -160 -154 -370 -357 -530 -508 -554 -523 -29 -19
-68 -24 -241 -33 -58 -3 -143 -8 -190 -11 -87 -5 -127 -7 -355 -19 l-130 -6
1009 1009 1008 1009 213 -178 c117 -97 216 -186 220 -196z m6414 -632 c520
-522 959 -962 974 -979 l29 -30 -34 3 c-18 2 -89 6 -158 10 -69 4 -154 8 -190
10 -36 3 -117 7 -180 10 -165 9 -196 12 -224 27 -13 7 -102 87 -196 178 -190
182 -205 196 -475 455 -103 99 -211 203 -239 230 -29 28 -142 136 -252 241
-109 106 -238 229 -286 274 -94 89 -114 122 -104 173 7 38 21 52 201 202 66
55 131 110 145 123 14 12 29 22 34 22 5 0 435 -427 955 -949z"/>
</g>
</svg>
